<svg xmlns="http://www.w3.org/2000/svg" width="17.151" height="38.17" viewBox="0 0 17.151 38.17"><defs><style>.a{fill:#fff;}</style></defs><g transform="translate(-22.065 -4.47)"><path class="a" d="M39.134,20.443a.944.944,0,0,0-.884-.646c-.041,0-.3-.03-.7-.046a5.251,5.251,0,0,0,1.582-4.81A.641.641,0,0,0,39,14.673V12.1c0-.422-.468-.763-1.045-.763s-1.045.341-1.045.763v2.134a11.248,11.248,0,0,0-4.608.856c1.051-.772,2.518-2.137,2.518-3.753,0-1.976-2.192-3.579-3.135-4.177V5.233c0-.422-.468-.763-1.045-.763s-1.045.341-1.045.763v1.93c-.943.6-3.135,2.2-3.135,4.177,0,1.617,1.467,2.981,2.518,3.753a11.239,11.239,0,0,0-4.607-.857V12.1c0-.422-.468-.763-1.045-.763s-1.045.341-1.045.763v2.569a.641.641,0,0,0-.135.268,5.25,5.25,0,0,0,1.581,4.81c-.4.016-.657.042-.7.046a.944.944,0,0,0-.884.646c-.026.13-.611,3.227,1.773,4.968a4.96,4.96,0,0,0,.445.276c-.751,0-1.274.052-1.333.059a.944.944,0,0,0-.884.646,5.25,5.25,0,0,0,1.582,4.81c-.4.016-.657.042-.7.046a.944.944,0,0,0-.884.646c-.026.13-.611,3.227,1.773,4.968a9.78,9.78,0,0,0,5.453,1.355c.081,0,.148,0,.223,0v3.663c0,.422.468.763,1.045.763s1.045-.341,1.045-.763V38.213c.075,0,.142,0,.223,0a9.78,9.78,0,0,0,5.453-1.355c2.384-1.741,1.8-4.838,1.773-4.968a.944.944,0,0,0-.884-.646c-.041,0-.3-.03-.7-.046a5.251,5.251,0,0,0,1.582-4.81.944.944,0,0,0-.884-.646c-.06-.007-.583-.058-1.335-.059a4.97,4.97,0,0,0,.446-.277C39.745,23.669,39.16,20.573,39.134,20.443ZM24.157,15.766a7.641,7.641,0,0,1,4.2.9,3.578,3.578,0,0,1,1.24,3.063,7.611,7.611,0,0,1-4.2-.9A3.578,3.578,0,0,1,24.157,15.766Zm0,5.5a7.628,7.628,0,0,1,4.2.9,3.578,3.578,0,0,1,1.24,3.063,7.579,7.579,0,0,1-4.2-.9A3.578,3.578,0,0,1,24.157,21.268Zm5.435,15.418a7.592,7.592,0,0,1-4.2-.9,3.578,3.578,0,0,1-1.24-3.063,7.609,7.609,0,0,1,4.2.9A3.578,3.578,0,0,1,29.593,36.686Zm0-5.5a7.579,7.579,0,0,1-4.2-.9,3.578,3.578,0,0,1-1.24-3.063,7.622,7.622,0,0,1,4.2.9A3.578,3.578,0,0,1,29.593,31.184Zm0-4.294c-.064-.042-.127-.086-.193-.125l.193,0ZM30.64,14.148c-.8-.558-2.09-1.636-2.09-2.808s1.286-2.248,2.088-2.806c.8.56,2.092,1.643,2.092,2.806S31.442,13.59,30.64,14.148Zm1.045,12.614.193,0c-.066.039-.128.083-.193.124Zm4.2,9.02a7.648,7.648,0,0,1-4.195.906,3.576,3.576,0,0,1,1.239-3.065,7.579,7.579,0,0,1,4.2-.906A3.578,3.578,0,0,1,35.883,35.782Zm1.24-8.567a3.578,3.578,0,0,1-1.24,3.065,7.648,7.648,0,0,1-4.195.906,3.576,3.576,0,0,1,1.239-3.065A7.6,7.6,0,0,1,37.123,27.215Zm-1.24-2.884a7.648,7.648,0,0,1-4.195.906,3.576,3.576,0,0,1,1.239-3.065,7.586,7.586,0,0,1,4.2-.906A3.578,3.578,0,0,1,35.883,24.331Zm0-5.5a7.648,7.648,0,0,1-4.195.906,3.576,3.576,0,0,1,1.239-3.065,7.6,7.6,0,0,1,4.2-.906A3.578,3.578,0,0,1,35.883,18.83Z"/></g></svg>