<svg xmlns="http://www.w3.org/2000/svg" width="23.002" height="23" viewBox="0 0 23.002 23"><defs><style>.a{fill:#fff;}</style></defs><g transform="translate(0.001)"><path class="a" d="M22.938,18.258c-.009-.027-.027-.044-.035-.071a.6.6,0,0,0-.053-.106l-3.308-4.963,3.423-12a.877.877,0,0,0-.142-.778A.915.915,0,0,0,22.115,0H.884A.9.9,0,0,0,.177.354a.858.858,0,0,0-.142.77l3.423,12L.15,18.082.1,18.188c-.009.027-.027.044-.035.071a1.214,1.214,0,0,0-.062.3v3.556A.887.887,0,0,0,.884,23H22.115A.887.887,0,0,0,23,22.115V18.559A1.214,1.214,0,0,0,22.938,18.258Zm-2-16.489L17.9,12.385H5.086L2.061,1.769ZM4.9,14.154H18.108l2.362,3.538H2.539Zm16.33,7.077H1.769V19.462H21.231Z" transform="translate(0)"/></g></svg>