<svg xmlns="http://www.w3.org/2000/svg" width="26.78" height="20.173" viewBox="0 0 26.78 20.173"><defs><style>.a{fill:#fff;}</style></defs><g transform="translate(-1 -7)"><g transform="translate(1 7)"><path class="a" d="M16.67,13.13a5.864,5.864,0,0,1,2.938,4.879v3.782h5.043V18.009C24.651,15.261,20.15,13.634,16.67,13.13Z" transform="translate(2.129 -1.619)"/><path class="a" d="M15.347,14.086A5.043,5.043,0,1,0,15.347,4a5.268,5.268,0,0,0-1.677.3,7.539,7.539,0,0,1,0,9.481A5.268,5.268,0,0,0,15.347,14.086Z" transform="translate(1.577 -4)"/><path class="a" d="M10.043,14.086A5.043,5.043,0,1,0,5,9.043,5.042,5.042,0,0,0,10.043,14.086Zm0-7.565A2.522,2.522,0,1,1,7.522,9.043,2.529,2.529,0,0,1,10.043,6.522Z" transform="translate(-0.23 -4)"/><path class="a" d="M11.086,13C7.72,13,1,14.689,1,18.043v3.782H21.173V18.043C21.173,14.689,14.453,13,11.086,13Zm7.565,6.3H3.522V18.056c.252-.908,4.161-2.534,7.565-2.534s7.313,1.626,7.565,2.522Z" transform="translate(-1 -1.653)"/></g></g></svg>